<svg xmlns="http://www.w3.org/2000/svg" width="32" height="32" viewBox="0 0 32 32"><g fill="#fff"><path d="M27.8 4.6v-.4h-.4c-.6-.1-1.2-.1-1.8-.1-4.7 0-9 1.8-12.3 5.1-.5.5-1 1.1-1.4 1.6-2-.2-4.3.5-5.6 1.8-1.5 1.5-2.4 4-2.1 6.3l.1.5h.5c1.2 0 2.4-.2 3.7-.4-.1.4-.1.8-.1 1.2v.2l3.4 3.4h.2c.4 0 .8-.1 1.2-.2-.2 1.3-.4 2.5-.4 3.7v.5l.5.1h.8c2 0 4.1-.8 5.5-2.2 1.3-1.4 2-3.6 1.8-5.6.5-.4 1.1-.9 1.6-1.4 3.5-3.7 5.3-8.8 4.8-14.1zm-22.7 13.7c-.1-1.9.6-3.8 1.8-5 1-1 2.6-1.6 4.2-1.6-1.3 1.9-2.1 3.9-2.6 6.2-1.2.2-2.3.3-3.4.4zm13.6 6.7c-1.2 1.2-3.1 1.9-5 1.8.1-1.1.2-2.3.4-3.5 2.2-.5 4.3-1.3 6.1-2.6.1 1.6-.5 3.3-1.5 4.3zm-6.7-2.3l-2.8-2.8c.4-3.9 2-7.3 4.7-10.1 3.4-3.4 8-5.1 12.9-4.7.4 4.8-1.4 9.5-4.7 12.9-2.7 2.7-6.2 4.4-10.1 4.7zM7.293 21.226l.707.707-2.404 2.404-.707-.707zM8.307 27.049l-.707-.707 2.404-2.404.707.707zM5.398 25.864l3.323-3.323.707.707-3.323 3.323zM21.1 8.6c-1.3 0-2.3 1-2.3 2.3s1 2.3 2.3 2.3 2.3-1 2.3-2.3-1.1-2.3-2.3-2.3zm0 3.6c-.7 0-1.3-.6-1.3-1.3 0-.7.6-1.3 1.3-1.3.7 0 1.3.6 1.3 1.3-.1.7-.6 1.3-1.3 1.3z"/></g></svg>