<?xml version="1.0" encoding="utf-8"?>
<!-- Generator: Adobe Illustrator 18.0.0, SVG Export Plug-In . SVG Version: 6.00 Build 0)  -->
<!DOCTYPE svg PUBLIC "-//W3C//DTD SVG 1.1//EN" "http://www.w3.org/Graphics/SVG/1.1/DTD/svg11.dtd">
<svg version="1.1" id="Layer_1" xmlns="http://www.w3.org/2000/svg" xmlns:xlink="http://www.w3.org/1999/xlink" x="0px" y="0px"
	 width="612px" height="612px" viewBox="0 0 612 612" enable-background="new 0 0 612 612" xml:space="preserve">
<path fill="#FFFFFF" d="M547.6,306c0,3.4-2,6.6-5,8.1L309.9,428.3c-1.3,0.6-2.6,0.9-4,0.9s-2.7-0.3-4-0.9L69.4,314.1
	c-3.1-1.5-5-4.6-5-8.1s2-6.6,5-8.1l68.1-33.5l20.4,10L93.7,306l212.2,104.2L518.1,306L454,274.5l20.4-10l68.1,33.5
	C545.6,299.4,547.6,302.6,547.6,306L547.6,306z M547.6,411.3c0,3.4-2,6.6-5,8.1L309.9,533.6c-1.3,0.6-2.6,0.9-4,0.9s-2.7-0.3-4-0.9
	L69.4,419.4c-3.1-1.5-5-4.6-5-8.1c0-3.4,2-6.6,5-8.1l68.1-33.5l20.4,10l-64.2,31.6l212.2,104.2l212.2-104.2L454,379.8l20.4-10
	l68.1,33.5C545.6,404.8,547.6,407.9,547.6,411.3L547.6,411.3z M306,323.9c-1.4,0-2.7-0.3-4-0.9L69.4,208.8c-3.1-1.5-5-4.6-5-8.1
	s2-6.6,5-8.1L302,78.4c2.5-1.2,5.4-1.2,7.9,0l232.6,114.2c3.1,1.5,5,4.6,5,8.1s-2,6.6-5,8.1L309.9,323
	C308.7,323.6,307.3,323.9,306,323.9L306,323.9z M93.8,200.8L306,305l212.2-104.2L306,96.5L93.8,200.8L93.8,200.8z"/>
<g>
	<g>
		<path fill="#5D9BEB" d="M587.8,158.3h-252c-12,0-21.8-9.7-21.8-21.8V37c0-12,9.7-21.8,21.8-21.8h252c12,0,21.8,9.7,21.8,21.8v99.5
			C609.5,148.5,599.8,158.3,587.8,158.3z"/>
	</g>
	<g>
		<path fill="#FFFFFF" d="M383.1,126.5h-22.6V47.9h22.9c17.7,0,26.1,8,26.1,20.4c0,8.2-4.6,13.6-11.4,16.4
			c8.8,2.7,14.6,8.4,14.6,18.9C412.8,119.1,401.6,126.5,383.1,126.5z M382.7,59.4H375v20.9h7c8.9,0,13.6-4,13.6-10.7
			C395.6,63.3,391.8,59.4,382.7,59.4z M382.9,91H375V115h8.1c9.6,0,15.2-4,15.2-11.9C398.3,95.2,392.9,91,382.9,91z"/>
		<path fill="#FFFFFF" d="M470.9,101.7h-35.3c0.7,10.7,6.4,15.4,14.8,15.4c7.1,0,12.9-2.6,18.9-6.8l1.6,10.7
			c-5.9,4.1-13.1,6.7-22,6.7c-15.4,0-26.9-8.8-26.9-28.6c0-17.9,10.7-28.7,25.1-28.7c16.5,0,23.9,12.4,23.9,28
			C471,99.5,470.9,100.9,470.9,101.7z M446.7,79.8c-5.5,0-9.9,4.3-10.9,13.3h21.9C456.8,84.6,453.4,79.8,446.7,79.8z"/>
		<path fill="#FFFFFF" d="M504.2,127.4c-10.8,0-18.1-4-18.1-16.5V82.6h-7.8V71.5h7.8V54l13.5-2.1v19.5h11.3l1.7,11.2h-13v26
			c0,4.4,2.1,6.8,7.3,6.8c1.6,0,3.1-0.1,4.3-0.5l1.7,11.5C510.7,127,508.2,127.4,504.2,127.4z"/>
		<path fill="#FFFFFF" d="M556.3,126.5l-1.1-7.2c-4.4,4.7-10.1,8.3-18.4,8.3c-9.3,0-15.6-5.7-15.6-15.3c0-13.3,10.9-19.2,33.2-21.3
			v-1.6c0-5.9-3.4-8.2-9.5-8.2c-6.4,0-12.4,1.8-18.4,4.4l-1.7-10.9c6.4-2.5,13.1-4.4,21.9-4.4c14.2,0,21.3,5.2,21.3,18.5v37.7H556.3
			z M554.4,99c-15.8,1.9-19.6,6.6-19.6,11.9c0,4,2.5,6.4,6.7,6.4c4.7,0,9.1-2.2,12.9-5.9V99z"/>
	</g>
</g>
</svg>
